<svg xmlns="http://www.w3.org/2000/svg" viewBox="0 0 1600 900" width="1600" height="900">
  <defs>
    <linearGradient id="wood" x1="0" y1="0" x2="1" y2="1">
      <stop offset="0" stop-color="#5b2e15"/><stop offset=".35" stop-color="#7a4020"/>
      <stop offset=".6" stop-color="#4a2410"/><stop offset="1" stop-color="#6b3619"/>
    </linearGradient>
    <pattern id="grain" width="220" height="14" patternUnits="userSpaceOnUse">
      <path d="M0 4 Q55 1 110 5 T220 4" stroke="#000" stroke-opacity=".10" fill="none" stroke-width="2"/>
      <path d="M0 10 Q70 13 140 9 T220 11" stroke="#fff" stroke-opacity=".05" fill="none" stroke-width="1.5"/>
    </pattern>
    <radialGradient id="felt" cx=".5" cy=".45" r=".75">
      <stop offset="0" stop-color="#2f7fd0"/><stop offset="1" stop-color="#123e78"/>
    </radialGradient>
    <pattern id="nap" width="6" height="6" patternUnits="userSpaceOnUse">
      <rect width="6" height="6" fill="none"/><path d="M0 6 L6 0" stroke="#000" stroke-opacity=".035" stroke-width="1"/>
    </pattern>
    <radialGradient id="lamp" cx=".5" cy=".5" r=".55">
      <stop offset="0" stop-color="#fff" stop-opacity=".16"/><stop offset=".6" stop-color="#fff" stop-opacity=".03"/>
      <stop offset="1" stop-color="#000" stop-opacity=".22"/>
    </radialGradient>
    <radialGradient id="shade" cx=".36" cy=".3" r=".75">
      <stop offset="0" stop-color="#fff" stop-opacity=".95"/><stop offset=".14" stop-color="#fff" stop-opacity=".35"/>
      <stop offset=".45" stop-color="#fff" stop-opacity="0"/><stop offset=".8" stop-color="#000" stop-opacity=".18"/>
      <stop offset="1" stop-color="#000" stop-opacity=".5"/>
    </radialGradient>
    <radialGradient id="pocket" cx=".5" cy=".5" r=".5">
      <stop offset="0" stop-color="#000"/><stop offset=".75" stop-color="#0b0b0b"/><stop offset="1" stop-color="#2a2a2a"/>
    </radialGradient>
    <linearGradient id="brass" x1="0" y1="0" x2="1" y2="1">
      <stop offset="0" stop-color="#f3dc9a"/><stop offset=".45" stop-color="#c9a24b"/><stop offset="1" stop-color="#8a6420"/>
    </linearGradient>
    <linearGradient id="cue" x1="1" y1="0" x2="0" y2="0">
      <stop offset="0" stop-color="#1a1410"/><stop offset=".3" stop-color="#2b1a10"/><stop offset=".32" stop-color="#c9a24b"/>
      <stop offset=".335" stop-color="#2b1a10"/><stop offset=".42" stop-color="#e2c28c"/><stop offset=".985" stop-color="#f0dcb4"/>
      <stop offset=".99" stop-color="#f6f1e6"/><stop offset="1" stop-color="#3a6ea8"/>
    </linearGradient>
    <filter id="soft" x="-20%" y="-20%" width="140%" height="140%"><feGaussianBlur stdDeviation="3"/></filter>
    <filter id="shadow" x="-10%" y="-10%" width="120%" height="120%"><feGaussianBlur stdDeviation="14"/></filter>
    <linearGradient id="cushion" x1="0" y1="0" x2="0" y2="1"><stop offset="0" stop-color="#1d5ea8"/><stop offset="1" stop-color="#123e78"/></linearGradient>
  </defs>
  <rect x="0" y="0" width="1600" height="900" rx="46" fill="url(#wood)"/>
  <rect x="0" y="0" width="1600" height="900" rx="46" fill="url(#grain)"/>
  <rect x="10" y="10" width="1580" height="880" rx="38" fill="none" stroke="#000" stroke-opacity=".25" stroke-width="2"/>
  <rect x="72" y="72" width="1456" height="756" rx="10" fill="#000" fill-opacity=".35"/>
  <rect x="78" y="78" width="1444" height="744" rx="6" fill="url(#cushion)"/>
  <rect x="104" y="104" width="1392" height="692" fill="url(#felt)"/>
  <rect x="104" y="104" width="1392" height="692" fill="url(#nap)"/>
  <rect x="104" y="104" width="1392" height="692" fill="none" stroke="#000" stroke-opacity=".28" stroke-width="3"/>
  <path d="M278.0 32.0 L285.0 39.0 L278.0 46.0 L271.0 39.0 Z" fill="#f4ecd8" opacity=".9"/>
  <path d="M278.0 854.0 L285.0 861.0 L278.0 868.0 L271.0 861.0 Z" fill="#f4ecd8" opacity=".9"/>
  <path d="M452.0 32.0 L459.0 39.0 L452.0 46.0 L445.0 39.0 Z" fill="#f4ecd8" opacity=".9"/>
  <path d="M452.0 854.0 L459.0 861.0 L452.0 868.0 L445.0 861.0 Z" fill="#f4ecd8" opacity=".9"/>
  <path d="M626.0 32.0 L633.0 39.0 L626.0 46.0 L619.0 39.0 Z" fill="#f4ecd8" opacity=".9"/>
  <path d="M626.0 854.0 L633.0 861.0 L626.0 868.0 L619.0 861.0 Z" fill="#f4ecd8" opacity=".9"/>
  <path d="M974.0 32.0 L981.0 39.0 L974.0 46.0 L967.0 39.0 Z" fill="#f4ecd8" opacity=".9"/>
  <path d="M974.0 854.0 L981.0 861.0 L974.0 868.0 L967.0 861.0 Z" fill="#f4ecd8" opacity=".9"/>
  <path d="M1148.0 32.0 L1155.0 39.0 L1148.0 46.0 L1141.0 39.0 Z" fill="#f4ecd8" opacity=".9"/>
  <path d="M1148.0 854.0 L1155.0 861.0 L1148.0 868.0 L1141.0 861.0 Z" fill="#f4ecd8" opacity=".9"/>
  <path d="M1322.0 32.0 L1329.0 39.0 L1322.0 46.0 L1315.0 39.0 Z" fill="#f4ecd8" opacity=".9"/>
  <path d="M1322.0 854.0 L1329.0 861.0 L1322.0 868.0 L1315.0 861.0 Z" fill="#f4ecd8" opacity=".9"/>
  <path d="M39.0 270.0 L46.0 277.0 L39.0 284.0 L32.0 277.0 Z" fill="#f4ecd8" opacity=".9"/>
  <path d="M1561.0 270.0 L1568.0 277.0 L1561.0 284.0 L1554.0 277.0 Z" fill="#f4ecd8" opacity=".9"/>
  <path d="M39.0 443.0 L46.0 450.0 L39.0 457.0 L32.0 450.0 Z" fill="#f4ecd8" opacity=".9"/>
  <path d="M1561.0 443.0 L1568.0 450.0 L1561.0 457.0 L1554.0 450.0 Z" fill="#f4ecd8" opacity=".9"/>
  <path d="M39.0 616.0 L46.0 623.0 L39.0 630.0 L32.0 623.0 Z" fill="#f4ecd8" opacity=".9"/>
  <path d="M1561.0 616.0 L1568.0 623.0 L1561.0 630.0 L1554.0 623.0 Z" fill="#f4ecd8" opacity=".9"/>
  <circle cx="98" cy="98" r="50" fill="url(#brass)"/>
  <circle cx="98" cy="98" r="50" fill="none" stroke="#5a4012" stroke-opacity=".5" stroke-width="2"/>
  <circle cx="98" cy="98" r="38" fill="url(#pocket)"/>
  <circle cx="800.0" cy="90" r="46" fill="url(#brass)"/>
  <circle cx="800.0" cy="90" r="46" fill="none" stroke="#5a4012" stroke-opacity=".5" stroke-width="2"/>
  <circle cx="800.0" cy="90" r="34" fill="url(#pocket)"/>
  <circle cx="1502" cy="98" r="50" fill="url(#brass)"/>
  <circle cx="1502" cy="98" r="50" fill="none" stroke="#5a4012" stroke-opacity=".5" stroke-width="2"/>
  <circle cx="1502" cy="98" r="38" fill="url(#pocket)"/>
  <circle cx="98" cy="802" r="50" fill="url(#brass)"/>
  <circle cx="98" cy="802" r="50" fill="none" stroke="#5a4012" stroke-opacity=".5" stroke-width="2"/>
  <circle cx="98" cy="802" r="38" fill="url(#pocket)"/>
  <circle cx="800.0" cy="810" r="46" fill="url(#brass)"/>
  <circle cx="800.0" cy="810" r="46" fill="none" stroke="#5a4012" stroke-opacity=".5" stroke-width="2"/>
  <circle cx="800.0" cy="810" r="34" fill="url(#pocket)"/>
  <circle cx="1502" cy="802" r="50" fill="url(#brass)"/>
  <circle cx="1502" cy="802" r="50" fill="none" stroke="#5a4012" stroke-opacity=".5" stroke-width="2"/>
  <circle cx="1502" cy="802" r="38" fill="url(#pocket)"/>
  <line x1="452.0" y1="104" x2="452.0" y2="796" stroke="#fff" stroke-opacity=".35" stroke-width="2" stroke-dasharray="10 10"/>
  <circle cx="1148.0" cy="450.0" r="3.5" fill="#fff" opacity=".6"/>
  <ellipse cx="1152.0" cy="456.0" rx="22.05" ry="18.900000000000002" fill="#000" opacity=".35" filter="url(#soft)"/><circle cx="1148.0" cy="450.0" r="21" fill="#f2c230"/><circle cx="1147.0" cy="449.0" r="9.450000000000001" fill="#fff"/><text x="1147.0" y="454.2" font-family="Arial, sans-serif" font-weight="700" font-size="12.18" text-anchor="middle" fill="#111">1</text><circle cx="1148.0" cy="450.0" r="21" fill="url(#shade)"/>
  <ellipse cx="1188.75" cy="434.5" rx="22.05" ry="18.900000000000002" fill="#000" opacity=".35" filter="url(#soft)"/><clipPath id="clip1184_428"><circle cx="1184.75" cy="428.5" r="21"/></clipPath><circle cx="1184.75" cy="428.5" r="21" fill="#f7f5ef"/><rect x="1163.75" y="416.95" width="42" height="23.1" fill="#c8102e" clip-path="url(#clip1184_428)"/><circle cx="1183.75" cy="427.5" r="9.450000000000001" fill="#fff"/><text x="1183.75" y="432.7" font-family="Arial, sans-serif" font-weight="700" font-size="12.18" text-anchor="middle" fill="#111">11</text><circle cx="1184.75" cy="428.5" r="21" fill="url(#shade)"/>
  <ellipse cx="1188.75" cy="477.5" rx="22.05" ry="18.900000000000002" fill="#000" opacity=".35" filter="url(#soft)"/><circle cx="1184.75" cy="471.5" r="21" fill="#c8102e"/><circle cx="1183.75" cy="470.5" r="9.450000000000001" fill="#fff"/><text x="1183.75" y="475.7" font-family="Arial, sans-serif" font-weight="700" font-size="12.18" text-anchor="middle" fill="#111">3</text><circle cx="1184.75" cy="471.5" r="21" fill="url(#shade)"/>
  <ellipse cx="1225.5" cy="413.0" rx="22.05" ry="18.900000000000002" fill="#000" opacity=".35" filter="url(#soft)"/><clipPath id="clip1221_407"><circle cx="1221.5" cy="407.0" r="21"/></clipPath><circle cx="1221.5" cy="407.0" r="21" fill="#f7f5ef"/><rect x="1200.5" y="395.45" width="42" height="23.1" fill="#1f8a3c" clip-path="url(#clip1221_407)"/><circle cx="1220.5" cy="406.0" r="9.450000000000001" fill="#fff"/><text x="1220.5" y="411.2" font-family="Arial, sans-serif" font-weight="700" font-size="12.18" text-anchor="middle" fill="#111">14</text><circle cx="1221.5" cy="407.0" r="21" fill="url(#shade)"/>
  <ellipse cx="1225.5" cy="456.0" rx="22.05" ry="18.900000000000002" fill="#000" opacity=".35" filter="url(#soft)"/><circle cx="1221.5" cy="450.0" r="21" fill="#151515"/><circle cx="1220.5" cy="449.0" r="9.450000000000001" fill="#fff"/><text x="1220.5" y="454.2" font-family="Arial, sans-serif" font-weight="700" font-size="12.18" text-anchor="middle" fill="#111">8</text><circle cx="1221.5" cy="450.0" r="21" fill="url(#shade)"/>
  <ellipse cx="1225.5" cy="499.0" rx="22.05" ry="18.900000000000002" fill="#000" opacity=".35" filter="url(#soft)"/><circle cx="1221.5" cy="493.0" r="21" fill="#1f8a3c"/><circle cx="1220.5" cy="492.0" r="9.450000000000001" fill="#fff"/><text x="1220.5" y="497.2" font-family="Arial, sans-serif" font-weight="700" font-size="12.18" text-anchor="middle" fill="#111">6</text><circle cx="1221.5" cy="493.0" r="21" fill="url(#shade)"/>
  <ellipse cx="1262.25" cy="391.5" rx="22.05" ry="18.900000000000002" fill="#000" opacity=".35" filter="url(#soft)"/><clipPath id="clip1258_385"><circle cx="1258.25" cy="385.5" r="21"/></clipPath><circle cx="1258.25" cy="385.5" r="21" fill="#f7f5ef"/><rect x="1237.25" y="373.95" width="42" height="23.1" fill="#f2c230" clip-path="url(#clip1258_385)"/><circle cx="1257.25" cy="384.5" r="9.450000000000001" fill="#fff"/><text x="1257.25" y="389.7" font-family="Arial, sans-serif" font-weight="700" font-size="12.18" text-anchor="middle" fill="#111">9</text><circle cx="1258.25" cy="385.5" r="21" fill="url(#shade)"/>
  <ellipse cx="1262.25" cy="434.5" rx="22.05" ry="18.900000000000002" fill="#000" opacity=".35" filter="url(#soft)"/><clipPath id="clip1258_428"><circle cx="1258.25" cy="428.5" r="21"/></clipPath><circle cx="1258.25" cy="428.5" r="21" fill="#f7f5ef"/><rect x="1237.25" y="416.95" width="42" height="23.1" fill="#5b2a86" clip-path="url(#clip1258_428)"/><circle cx="1257.25" cy="427.5" r="9.450000000000001" fill="#fff"/><text x="1257.25" y="432.7" font-family="Arial, sans-serif" font-weight="700" font-size="12.18" text-anchor="middle" fill="#111">12</text><circle cx="1258.25" cy="428.5" r="21" fill="url(#shade)"/>
  <ellipse cx="1262.25" cy="477.5" rx="22.05" ry="18.900000000000002" fill="#000" opacity=".35" filter="url(#soft)"/><circle cx="1258.25" cy="471.5" r="21" fill="#1f4fbf"/><circle cx="1257.25" cy="470.5" r="9.450000000000001" fill="#fff"/><text x="1257.25" y="475.7" font-family="Arial, sans-serif" font-weight="700" font-size="12.18" text-anchor="middle" fill="#111">2</text><circle cx="1258.25" cy="471.5" r="21" fill="url(#shade)"/>
  <ellipse cx="1262.25" cy="520.5" rx="22.05" ry="18.900000000000002" fill="#000" opacity=".35" filter="url(#soft)"/><clipPath id="clip1258_514"><circle cx="1258.25" cy="514.5" r="21"/></clipPath><circle cx="1258.25" cy="514.5" r="21" fill="#f7f5ef"/><rect x="1237.25" y="502.95" width="42" height="23.1" fill="#f07a1a" clip-path="url(#clip1258_514)"/><circle cx="1257.25" cy="513.5" r="9.450000000000001" fill="#fff"/><text x="1257.25" y="518.7" font-family="Arial, sans-serif" font-weight="700" font-size="12.18" text-anchor="middle" fill="#111">13</text><circle cx="1258.25" cy="514.5" r="21" fill="url(#shade)"/>
  <ellipse cx="1299.0" cy="370.0" rx="22.05" ry="18.900000000000002" fill="#000" opacity=".35" filter="url(#soft)"/><clipPath id="clip1295_364"><circle cx="1295.0" cy="364.0" r="21"/></clipPath><circle cx="1295.0" cy="364.0" r="21" fill="#f7f5ef"/><rect x="1274.0" y="352.45" width="42" height="23.1" fill="#7c1d2c" clip-path="url(#clip1295_364)"/><circle cx="1294.0" cy="363.0" r="9.450000000000001" fill="#fff"/><text x="1294.0" y="368.2" font-family="Arial, sans-serif" font-weight="700" font-size="12.18" text-anchor="middle" fill="#111">15</text><circle cx="1295.0" cy="364.0" r="21" fill="url(#shade)"/>
  <ellipse cx="1299.0" cy="413.0" rx="22.05" ry="18.900000000000002" fill="#000" opacity=".35" filter="url(#soft)"/><circle cx="1295.0" cy="407.0" r="21" fill="#5b2a86"/><circle cx="1294.0" cy="406.0" r="9.450000000000001" fill="#fff"/><text x="1294.0" y="411.2" font-family="Arial, sans-serif" font-weight="700" font-size="12.18" text-anchor="middle" fill="#111">4</text><circle cx="1295.0" cy="407.0" r="21" fill="url(#shade)"/>
  <ellipse cx="1299.0" cy="456.0" rx="22.05" ry="18.900000000000002" fill="#000" opacity=".35" filter="url(#soft)"/><clipPath id="clip1295_450"><circle cx="1295.0" cy="450.0" r="21"/></clipPath><circle cx="1295.0" cy="450.0" r="21" fill="#f7f5ef"/><rect x="1274.0" y="438.45" width="42" height="23.1" fill="#1f4fbf" clip-path="url(#clip1295_450)"/><circle cx="1294.0" cy="449.0" r="9.450000000000001" fill="#fff"/><text x="1294.0" y="454.2" font-family="Arial, sans-serif" font-weight="700" font-size="12.18" text-anchor="middle" fill="#111">10</text><circle cx="1295.0" cy="450.0" r="21" fill="url(#shade)"/>
  <ellipse cx="1299.0" cy="499.0" rx="22.05" ry="18.900000000000002" fill="#000" opacity=".35" filter="url(#soft)"/><circle cx="1295.0" cy="493.0" r="21" fill="#f07a1a"/><circle cx="1294.0" cy="492.0" r="9.450000000000001" fill="#fff"/><text x="1294.0" y="497.2" font-family="Arial, sans-serif" font-weight="700" font-size="12.18" text-anchor="middle" fill="#111">5</text><circle cx="1295.0" cy="493.0" r="21" fill="url(#shade)"/>
  <ellipse cx="1299.0" cy="542.0" rx="22.05" ry="18.900000000000002" fill="#000" opacity=".35" filter="url(#soft)"/><circle cx="1295.0" cy="536.0" r="21" fill="#7c1d2c"/><circle cx="1294.0" cy="535.0" r="9.450000000000001" fill="#fff"/><text x="1294.0" y="540.2" font-family="Arial, sans-serif" font-weight="700" font-size="12.18" text-anchor="middle" fill="#111">7</text><circle cx="1295.0" cy="536.0" r="21" fill="url(#shade)"/>
  <ellipse cx="426.0" cy="496.0" rx="22.05" ry="18.900000000000002" fill="#000" opacity=".35" filter="url(#soft)"/><circle cx="422.0" cy="490.0" r="21" fill="#f7f5ef"/><circle cx="422.0" cy="490.0" r="21" fill="url(#shade)"/>
  <g transform="rotate(172 389.0 496.0)"><polygon points="389.0,493.0 1149.0,488.5 1149.0,503.5 389.0,499.0" fill="#000" opacity=".3" filter="url(#soft)" transform="translate(6 12)"/><polygon points="389.0,493.0 1149.0,488.5 1149.0,503.5 389.0,499.0" fill="url(#cue)"/></g>
  <rect x="104" y="104" width="1392" height="692" fill="url(#lamp)"/>
</svg>
